<svg xmlns="http://www.w3.org/2000/svg" width="3208.413" height="2171.147" viewBox="0 0 3208.413 2171.147">
  <rect width="3208.413" height="2171.147" fill="#f2f1ed"></rect>
  <g>
    <g>
      <path d="M1009.177,1452.082V1414.75l-16.048,28.628h-3.468l-16.116-28.628v37.332h-6.12V1403.8h6.46l17.476,31.349,17.544-31.349h6.392v48.28Z"></path>
      <path d="M1073.5,1403.8h5.169l19.72,48.28h-6.528l-5.712-14.143h-20.264l-5.644,14.143h-6.528Zm11.289,29.376-8.7-22.3-8.975,22.3Z"></path>
      <path d="M1136.812,1452.082V1403.8h6.12v48.28Z"></path>
      <path d="M1214.808,1413.934a10.132,10.132,0,0,0-2.177-1.836,19.5,19.5,0,0,0-3.06-1.6,21.716,21.716,0,0,0-3.706-1.156,19.419,19.419,0,0,0-4.181-.441q-5.646,0-8.263,2.107a7.02,7.02,0,0,0-2.618,5.78,6.43,6.43,0,0,0,.748,3.264,6.151,6.151,0,0,0,2.347,2.21,17.879,17.879,0,0,0,3.978,1.6q2.379.679,5.644,1.427a58.825,58.825,0,0,1,6.765,1.87,19.761,19.761,0,0,1,5.169,2.619,10.491,10.491,0,0,1,3.263,3.807,12.231,12.231,0,0,1,1.122,5.508,12.623,12.623,0,0,1-1.359,6.019,12.077,12.077,0,0,1-3.706,4.215,16.032,16.032,0,0,1-5.542,2.449,29.231,29.231,0,0,1-6.937.781,32.006,32.006,0,0,1-10.574-1.734,29.524,29.524,0,0,1-9.077-5.066l2.923-5.168a16.173,16.173,0,0,0,2.822,2.313,22.889,22.889,0,0,0,3.945,2.073,29.087,29.087,0,0,0,4.759,1.5,24.047,24.047,0,0,0,5.338.578q5.168,0,8.025-1.836a6.787,6.787,0,0,0,1.938-8.941,7.8,7.8,0,0,0-2.686-2.414,20.682,20.682,0,0,0-4.387-1.8q-2.617-.782-5.949-1.6a59.047,59.047,0,0,1-6.46-1.9,17.622,17.622,0,0,1-4.659-2.447,9.24,9.24,0,0,1-2.822-3.469,11.491,11.491,0,0,1-.951-4.9,13.8,13.8,0,0,1,1.292-6.12,12.841,12.841,0,0,1,3.6-4.488,15.706,15.706,0,0,1,5.507-2.754,25.042,25.042,0,0,1,6.936-.918,24.3,24.3,0,0,1,15.845,5.508Z"></path>
      <path d="M1279.407,1452.422a20.584,20.584,0,0,1-9.282-2.074,22.878,22.878,0,0,1-7.174-5.508,25.015,25.015,0,0,1-4.624-7.853,25.918,25.918,0,0,1-1.632-9.044,25.1,25.1,0,0,1,1.734-9.248,25.51,25.51,0,0,1,4.794-7.821,23.079,23.079,0,0,1,7.242-5.406,20.734,20.734,0,0,1,9.078-2.006,19.844,19.844,0,0,1,9.248,2.143,23.705,23.705,0,0,1,7.14,5.609,26.028,26.028,0,0,1,6.256,16.8,25.09,25.09,0,0,1-1.734,9.248,25.409,25.409,0,0,1-4.76,7.786,22.909,22.909,0,0,1-7.208,5.372A20.706,20.706,0,0,1,1279.407,1452.422Zm-16.524-24.479a21.525,21.525,0,0,0,1.19,7.105,19.613,19.613,0,0,0,3.366,6.086,16.264,16.264,0,0,0,5.236,4.216,14.706,14.706,0,0,0,6.8,1.564,14.253,14.253,0,0,0,6.936-1.666,16.926,16.926,0,0,0,5.2-4.351,19.445,19.445,0,0,0,3.264-6.087,21.787,21.787,0,0,0,1.122-6.867,21.563,21.563,0,0,0-1.19-7.107,18.889,18.889,0,0,0-3.4-6.052,17.049,17.049,0,0,0-5.236-4.182,15.341,15.341,0,0,0-13.634.068,16.734,16.734,0,0,0-5.2,4.284,19.553,19.553,0,0,0-3.3,6.052A21.409,21.409,0,0,0,1262.883,1427.943Z"></path>
      <path d="M1348.766,1415.226v36.856h-6.12V1403.8h4.76l29.92,37.605V1403.87h6.12v48.212h-5.168Z"></path>
      <path d="M1567.044,1452.082V1414.75L1551,1443.378h-3.468l-16.116-28.628v37.332h-6.12V1403.8h6.46l17.476,31.349,17.544-31.349h6.392v48.28Z"></path>
      <path d="M1631.371,1403.8h5.168l19.72,48.28h-6.528l-5.712-14.143h-20.265l-5.643,14.143h-6.528Zm11.288,29.376-8.7-22.3-8.976,22.3Z"></path>
      <path d="M1694.678,1452.082V1403.8h20.672a13.107,13.107,0,0,1,5.882,1.326,14.82,14.82,0,0,1,4.624,3.536,16.877,16.877,0,0,1,3.026,4.964,15.157,15.157,0,0,1,1.088,5.611,16.6,16.6,0,0,1-.714,4.861,15.041,15.041,0,0,1-2.04,4.25,13.67,13.67,0,0,1-3.2,3.265,12.47,12.47,0,0,1-4.182,1.971l11.7,18.5H1724.6l-11.016-17.34H1700.8v17.34Zm6.12-22.78h14.62a7.182,7.182,0,0,0,3.434-.815,8.167,8.167,0,0,0,2.618-2.21,10.693,10.693,0,0,0,1.7-3.231,11.95,11.95,0,0,0,.612-3.807,10.309,10.309,0,0,0-.714-3.842,11.3,11.3,0,0,0-1.9-3.2,8.628,8.628,0,0,0-2.788-2.175,7.558,7.558,0,0,0-3.366-.783H1700.8Z"></path>
      <path d="M1805.381,1445.554q-6.392,6.87-14.687,6.868a19.32,19.32,0,0,1-8.942-2.107,23.6,23.6,0,0,1-7.106-5.542,26.634,26.634,0,0,1-4.726-7.855,24.738,24.738,0,0,1-1.734-9.112,25.6,25.6,0,0,1,6.392-17.033,22.2,22.2,0,0,1,7.139-5.339,20.645,20.645,0,0,1,8.977-1.972q7,0,11.525,2.924a19.391,19.391,0,0,1,6.9,7.616l-4.692,3.264a14.675,14.675,0,0,0-5.78-6.256,16.151,16.151,0,0,0-8.092-2.04,13.911,13.911,0,0,0-6.664,1.6,16.37,16.37,0,0,0-5.1,4.215,19.435,19.435,0,0,0-3.264,6.052,22.092,22.092,0,0,0-1.156,7.107,20.56,20.56,0,0,0,1.292,7.309,20.01,20.01,0,0,0,3.536,6.052,16.388,16.388,0,0,0,5.3,4.114,14.958,14.958,0,0,0,6.665,1.5q7.887,0,14.211-7.616v-6.664h-10.4v-4.624h15.571v24.072h-5.168Z"></path>
      <path d="M1871.681,1446.914a13.7,13.7,0,0,0,7-1.631,12.924,12.924,0,0,0,4.454-4.25,17.5,17.5,0,0,0,2.347-5.985,34.517,34.517,0,0,0,.68-6.834V1403.8h6.12v24.412a37.315,37.315,0,0,1-1.122,9.282,22.159,22.159,0,0,1-3.571,7.718,17.25,17.25,0,0,1-6.357,5.271,24.2,24.2,0,0,1-19.21-.1,17.619,17.619,0,0,1-6.358-5.406,21.907,21.907,0,0,1-3.468-7.752,38.347,38.347,0,0,1-1.055-9.01V1403.8h6.12v24.412a33.494,33.494,0,0,0,.714,6.97,17.606,17.606,0,0,0,2.381,5.95,12.809,12.809,0,0,0,4.42,4.183A13.581,13.581,0,0,0,1871.681,1446.914Z"></path>
      <path d="M1967.9,1446.642v5.44h-32.775V1403.8h32.164v5.44h-26.044v15.64h22.643v5.1h-22.643v16.659Z"></path>
      <path d="M2008.224,1452.082V1403.8H2028.9a13.107,13.107,0,0,1,5.882,1.326,14.82,14.82,0,0,1,4.624,3.536,16.877,16.877,0,0,1,3.026,4.964,15.157,15.157,0,0,1,1.088,5.611,16.6,16.6,0,0,1-.714,4.861,15.041,15.041,0,0,1-2.04,4.25,13.67,13.67,0,0,1-3.2,3.265,12.47,12.47,0,0,1-4.182,1.971l11.7,18.5h-6.936l-11.016-17.34h-12.784v17.34Zm6.12-22.78h14.619a7.183,7.183,0,0,0,3.435-.815,8.167,8.167,0,0,0,2.618-2.21,10.693,10.693,0,0,0,1.7-3.231,11.95,11.95,0,0,0,.612-3.807,10.329,10.329,0,0,0-.714-3.842,11.3,11.3,0,0,0-1.9-3.2,8.621,8.621,0,0,0-2.789-2.175,7.551,7.551,0,0,0-3.365-.783h-14.212Z"></path>
      <path d="M2084.86,1452.082V1403.8h6.12v48.28Z"></path>
      <path d="M2169.316,1409.242h-16.66v42.84h-6.119v-42.84h-16.66v-5.44h39.439Z"></path>
      <path d="M2240.988,1446.642v5.44h-32.776V1403.8h32.165v5.44h-26.044v15.64h22.643v5.1h-22.643v16.659Z"></path>
    </g>
    <path d="M1503.021,1525.241c6.178,8.3,5.933,8.955-1.388,1.164-45.255-48.168-60.3-171.475-53.028-265.833,12.464-161.851,48.616-337.556,65.822-498.413,2.775-25.981,5.124-52.887,5.691-79.919-61.548,135.74-102.52,265.566-161,404.836-17.566,41.842-36.005,92.987-66.521,123.63-10.2,10.348-28.7,15.378-38.893-.449-18.705-28.945-15.107-86.073-13.463-130.666,3.775-103.02,10.534-199.8,28.839-295.192,7.694-40.1,19.968-73.2,25.562-112a91.849,91.849,0,0,0,.914-9.165c-8.385,5.967-13.976,14.345-19.593,22.862-52.356,89.852-75.347,210.655-103.1,323.937-22.92,93.644-40.991,143.09-68.447,233.558-4.625,15.243-11.016,61.971-32.92,58.694-12.613-2.762-11.787-21.594-11.787-36.22-.052-59.534,6.934-92.919,12.2-148.42,12.171-128.264,22.516-228.859,28.768-356.869,1.56-31.965,3.549-64.332-.512-94.276-.542-3.892-1.037-9.519-2.584-13.389-4.123,6.143-6.564,15.726-8.862,22.668-25.451,77.056-42.015,166.024-49.549,254.387-1.472,17.294-7.845,72.938,9.857,69.866,3.425-.6,4.585-2.155,4.928-1.678-.054-.075-.851,1.882-4.554,3.121-15.19,5.084-16.35-28.611-16.6-44.438-1.149-71.2,11.3-134.6,24.277-199.289,7.025-35.012,14.355-80.7,30.317-110.056,3.592-6.833,13.589-13.92,19.6-2.014,7.84,14.9,7.613,38.561,7.942,59.717.656,42.207-1.758,82.613-4.408,123.7-15.432,239.2-21.557,209.98-31.642,394.62-.815,14.9-1.908,30.888-1.39,46.353,3.856-10.262,6.513-21.968,9.434-31.747,25.912-86.844,39.713-131.864,64.194-221.242,2.486-9.071,4.626-18.6,6.807-27.982,26.878-110.691,49.91-226.545,101.331-313.97a135.858,135.858,0,0,1,12.572-16.564c6.39-7.18,17.2-20.7,32.887-16.525,17.782,7.741,9.368,38.295,5.52,54.795-6.937,29.831-15.319,56.7-21.193,89.594-16.991,95.171-25.1,191.645-29.013,293.9-1.4,36.718-3.035,77.742,5.357,107.866,1.562,5.245,3.052,11.443,6.827,13.556,4.49-.47,9.428-7.685,12-10.9,10.317-12.937,18.772-28.818,26.622-44.206C1371.861,1027.025,1410,910.4,1460.626,781.927c15.5-39.386,30.129-82.628,50.664-118.558,3.065-5.416,10.072-17.634,20.114-11.231,4.554,3.706,5.518,8.716,5.359,15.7-.282,73.924-12.22,121.429-22.635,186.012-19.509,121-43.849,284.8-55.51,407.584C1450.327,1353.2,1463.18,1471.7,1503.021,1525.241ZM1095.368,649.7a1.033,1.033,0,0,0,.433.41A5.04,5.04,0,0,0,1095.368,649.7Zm4.573.51c.015-.034-.036.027-.165.16A.866.866,0,0,0,1099.941,650.21Zm429.383,15.895s-.134.206-.3.448A1.352,1.352,0,0,0,1529.324,666.105Z"></path>
  </g>
</svg>