<svg xmlns="http://www.w3.org/2000/svg" width="1771.605" height="1241.673" viewBox="0 0 1771.605 1241.673">
  <g>
    <g>
      <path d="M58.08,1130.673v-51.931l-22.324,39.823H30.932L8.513,1078.742v51.931H0v-67.161H8.987L33.3,1107.12l24.4-43.608h8.892v67.161Z" fill="#fff"></path>
      <path d="M147.563,1063.512h7.19l27.431,67.161H173.1L165.158,1111H136.969l-7.851,19.675h-9.08Zm15.7,40.864-12.108-31.026-12.486,31.026Z" fill="#fff"></path>
      <path d="M235.627,1130.673v-67.161h8.514v67.161Z" fill="#fff"></path>
      <path d="M344.125,1077.606a14.1,14.1,0,0,0-3.027-2.554,27.045,27.045,0,0,0-4.257-2.222,30.149,30.149,0,0,0-5.156-1.609,27.012,27.012,0,0,0-5.816-.614q-7.854,0-11.494,2.932a9.764,9.764,0,0,0-3.642,8.04,8.945,8.945,0,0,0,1.041,4.54,8.547,8.547,0,0,0,3.264,3.075,24.826,24.826,0,0,0,5.533,2.223q3.31.947,7.851,1.987a81.6,81.6,0,0,1,9.412,2.6,27.425,27.425,0,0,1,7.19,3.642,14.577,14.577,0,0,1,4.539,5.3,17.006,17.006,0,0,1,1.561,7.661,17.565,17.565,0,0,1-1.891,8.373,16.792,16.792,0,0,1-5.156,5.864,22.287,22.287,0,0,1-7.709,3.406,40.615,40.615,0,0,1-9.648,1.086,44.533,44.533,0,0,1-14.71-2.411,41.079,41.079,0,0,1-12.627-7.048l4.067-7.188a22.446,22.446,0,0,0,3.925,3.216,31.784,31.784,0,0,0,5.487,2.884,40.416,40.416,0,0,0,6.621,2.082,33.494,33.494,0,0,0,7.425.8q7.188,0,11.163-2.554a9.441,9.441,0,0,0,2.7-12.438,10.848,10.848,0,0,0-3.737-3.358,28.815,28.815,0,0,0-6.1-2.508q-3.642-1.086-8.277-2.223a82.262,82.262,0,0,1-8.986-2.649,24.488,24.488,0,0,1-6.48-3.4,12.843,12.843,0,0,1-3.926-4.825,15.992,15.992,0,0,1-1.323-6.81,19.19,19.19,0,0,1,1.8-8.513,17.863,17.863,0,0,1,5.013-6.244,21.879,21.879,0,0,1,7.662-3.831A34.766,34.766,0,0,1,348.1,1070.7Z" fill="#fff"></path>
      <path d="M433.986,1131.146a28.634,28.634,0,0,1-12.911-2.886,31.815,31.815,0,0,1-9.979-7.661,34.794,34.794,0,0,1-6.433-10.925,36.039,36.039,0,0,1-2.27-12.581,34.921,34.921,0,0,1,2.412-12.865,35.479,35.479,0,0,1,6.669-10.878,32.082,32.082,0,0,1,10.074-7.52,28.831,28.831,0,0,1,12.628-2.791,27.6,27.6,0,0,1,12.864,2.981,32.968,32.968,0,0,1,9.933,7.8,36.2,36.2,0,0,1,8.7,23.364,34.9,34.9,0,0,1-2.412,12.864,35.33,35.33,0,0,1-6.622,10.831,31.835,31.835,0,0,1-10.026,7.473A28.811,28.811,0,0,1,433.986,1131.146ZM411,1097.093a29.961,29.961,0,0,0,1.656,9.884,27.279,27.279,0,0,0,4.682,8.466,22.652,22.652,0,0,0,7.284,5.865,20.46,20.46,0,0,0,9.459,2.176,19.838,19.838,0,0,0,9.649-2.318,23.542,23.542,0,0,0,7.236-6.053,27.036,27.036,0,0,0,4.54-8.467,30.182,30.182,0,0,0-.094-19.438,26.277,26.277,0,0,0-4.73-8.419,23.714,23.714,0,0,0-7.284-5.818,21.342,21.342,0,0,0-18.965.1,23.258,23.258,0,0,0-7.237,5.96,27.175,27.175,0,0,0-4.587,8.418A29.765,29.765,0,0,0,411,1097.093Z" fill="#fff"></path>
      <path d="M530.469,1079.4v51.27h-8.514v-67.161h6.622l41.621,52.31v-52.215h8.513v67.066h-7.189Z" fill="#fff"></path>
      <path d="M834.108,1130.673v-51.931l-22.325,39.823h-4.824l-22.418-39.823v51.931h-8.514v-67.161h8.987l24.31,43.608,24.405-43.608h8.891v67.161Z" fill="#fff"></path>
      <path d="M923.59,1063.512h7.189l27.433,67.161H949.13L941.185,1111H913l-7.85,19.675h-9.082Zm15.7,40.864-12.108-31.026L914.7,1104.376Z" fill="#fff"></path>
      <path d="M1011.655,1130.673v-67.161h28.756a18.233,18.233,0,0,1,8.182,1.845,20.582,20.582,0,0,1,6.432,4.919,23.509,23.509,0,0,1,4.21,6.9,21.091,21.091,0,0,1,1.513,7.8,23.1,23.1,0,0,1-.993,6.763,20.93,20.93,0,0,1-2.838,5.912,19,19,0,0,1-4.446,4.541,17.355,17.355,0,0,1-5.817,2.743l16.269,25.729h-9.648l-15.325-24.121h-17.782v24.121Zm8.513-31.689H1040.5a10,10,0,0,0,4.778-1.134,11.369,11.369,0,0,0,3.642-3.074,14.9,14.9,0,0,0,2.365-4.494,16.646,16.646,0,0,0,.851-5.3,14.374,14.374,0,0,0-.993-5.344,15.7,15.7,0,0,0-2.649-4.446,12.016,12.016,0,0,0-3.879-3.027,10.521,10.521,0,0,0-4.681-1.088h-19.77Z" fill="#fff"></path>
      <path d="M1165.65,1121.592q-8.894,9.556-20.431,9.554a26.876,26.876,0,0,1-12.44-2.932,32.833,32.833,0,0,1-9.884-7.709,37.047,37.047,0,0,1-6.575-10.926,34.441,34.441,0,0,1-2.411-12.676,35.6,35.6,0,0,1,8.891-23.694,30.869,30.869,0,0,1,9.932-7.427,28.725,28.725,0,0,1,12.487-2.743q9.741,0,16.032,4.067a26.983,26.983,0,0,1,9.6,10.6l-6.526,4.54a20.417,20.417,0,0,0-8.041-8.7,22.459,22.459,0,0,0-11.256-2.838,19.359,19.359,0,0,0-9.27,2.224,22.794,22.794,0,0,0-7.1,5.864,27.06,27.06,0,0,0-4.54,8.419,30.749,30.749,0,0,0-1.608,9.885,28.628,28.628,0,0,0,1.8,10.168,27.858,27.858,0,0,0,4.919,8.419,22.817,22.817,0,0,0,7.378,5.723,20.809,20.809,0,0,0,9.27,2.081q10.972,0,19.77-10.6v-9.27h-14.472v-6.432h21.661v33.486h-7.189Z" fill="#fff"></path>
      <path d="M1257.877,1123.484a19.049,19.049,0,0,0,9.743-2.27,17.991,17.991,0,0,0,6.2-5.912,24.368,24.368,0,0,0,3.264-8.325,47.992,47.992,0,0,0,.946-9.506v-33.959h8.513v33.959a51.9,51.9,0,0,1-1.561,12.912,30.815,30.815,0,0,1-4.966,10.736,24,24,0,0,1-8.844,7.331,33.647,33.647,0,0,1-26.722-.142,24.512,24.512,0,0,1-8.845-7.521,30.5,30.5,0,0,1-4.824-10.783,53.352,53.352,0,0,1-1.467-12.533v-33.959h8.513v33.959a46.66,46.66,0,0,0,.993,9.695,24.471,24.471,0,0,0,3.312,8.277,17.814,17.814,0,0,0,6.149,5.818A18.876,18.876,0,0,0,1257.877,1123.484Z" fill="#fff"></path>
      <path d="M1391.723,1123.105v7.568h-45.592v-67.161h44.742v7.568h-36.229v21.756h31.5v7.1h-31.5v23.174Z" fill="#fff"></path>
      <path d="M1447.817,1130.673v-67.161h28.756a18.233,18.233,0,0,1,8.182,1.845,20.582,20.582,0,0,1,6.432,4.919,23.509,23.509,0,0,1,4.21,6.9,21.091,21.091,0,0,1,1.513,7.8,23.1,23.1,0,0,1-.993,6.763,20.93,20.93,0,0,1-2.838,5.912,19.023,19.023,0,0,1-4.446,4.541,17.355,17.355,0,0,1-5.817,2.743l16.269,25.729h-9.648l-15.325-24.121H1456.33v24.121Zm8.513-31.689h20.336a10,10,0,0,0,4.778-1.134,11.369,11.369,0,0,0,3.642-3.074,14.9,14.9,0,0,0,2.365-4.494,16.646,16.646,0,0,0,.85-5.3,14.354,14.354,0,0,0-.993-5.344,15.657,15.657,0,0,0-2.649-4.446,12,12,0,0,0-3.878-3.027,10.521,10.521,0,0,0-4.681-1.088h-19.77Z" fill="#fff"></path>
      <path d="M1554.422,1130.673v-67.161h8.513v67.161Z" fill="#fff"></path>
      <path d="M1671.905,1071.08H1648.73v59.593h-8.512V1071.08h-23.175v-7.568h54.862Z" fill="#fff"></path>
      <path d="M1771.605,1123.105v7.568h-45.592v-67.161h44.742v7.568h-36.229v21.756h31.5v7.1h-31.5v23.174Z" fill="#fff"></path>
    </g>
    <path d="M745.048,1232.441c8.594,11.552,8.253,12.456-1.931,1.619-62.952-67-83.884-238.532-73.766-369.79,17.339-225.145,67.629-469.562,91.563-693.323,3.86-36.142,7.127-73.57,7.917-111.172C683.213,248.6,626.219,429.194,544.874,622.926,520.44,681.131,494.79,752.277,452.34,794.9c-14.189,14.4-39.918,21.392-54.1-.624-26.021-40.265-21.015-119.733-18.728-181.765,5.252-143.307,14.653-277.937,40.116-410.63,10.7-55.775,27.778-101.832,35.559-155.8a127.763,127.763,0,0,0,1.271-12.749c-11.664,8.3-19.44,19.955-27.255,31.8-72.83,124.99-104.812,293.035-143.424,450.617C253.894,646.015,228.756,714.8,190.563,840.644c-6.433,21.205-15.323,86.206-45.794,81.647-17.546-3.841-16.4-30.038-16.4-50.384-.073-82.816,9.646-129.256,16.973-206.462,16.931-178.422,31.321-318.357,40.018-496.427,2.17-44.465,4.936-89.489-.712-131.143-.755-5.415-1.444-13.241-3.595-18.625-5.735,8.545-9.132,21.875-12.328,31.532C133.326,157.973,110.284,281.733,99.8,404.65c-2.047,24.058-10.912,101.463,13.712,97.189,4.764-.834,6.378-3,6.855-2.334-.075-.105-1.183,2.617-6.335,4.341-21.13,7.072-22.744-39.8-23.1-61.817-1.6-99.043,15.714-187.242,33.772-277.222,9.771-48.7,19.968-112.252,42.172-153.1,5-9.5,18.9-19.363,27.258-2.8,10.906,20.726,10.59,53.64,11.047,83.069.913,58.713-2.444,114.921-6.13,172.081C177.59,596.806,169.069,556.156,155.04,813c-1.132,20.726-2.654,42.966-1.932,64.479,5.364-14.275,9.059-30.559,13.122-44.161,36.046-120.806,55.244-183.431,89.3-307.762,3.459-12.619,6.436-25.874,9.47-38.925C302.386,332.655,334.425,171.5,405.956,49.881A188.888,188.888,0,0,1,423.443,26.84c8.89-9.988,23.932-28.794,45.748-22.988,24.737,10.768,13.032,53.27,7.679,76.224-9.649,41.5-21.31,78.87-29.48,124.63C423.754,337.1,412.478,471.3,407.031,613.545c-1.945,51.077-4.223,108.144,7.451,150.048,2.173,7.3,4.246,15.918,9.5,18.857,6.247-.653,13.116-10.69,16.69-15.168,14.352-18,26.113-40.087,37.033-61.492,84.894-166.4,137.947-328.636,208.372-507.345C707.628,143.657,727.985,83.5,756.551,33.523c4.263-7.534,14.011-24.53,27.979-15.623,6.334,5.156,7.676,12.125,7.455,21.838-.392,102.833-17,168.914-31.487,258.754-27.138,168.313-61,396.173-77.218,566.975C671.747,993.118,689.627,1157.964,745.048,1232.441ZM177.977,14.509a1.426,1.426,0,0,0,.6.57A7.143,7.143,0,0,0,177.977,14.509Zm6.361.709c.021-.047-.051.038-.23.224A1.194,1.194,0,0,0,184.338,15.218Zm597.3,22.112s-.185.287-.422.622A1.888,1.888,0,0,0,781.636,37.33Z" fill="#fff"></path>
  </g>
</svg>